<?xml version="1.0" standalone="no"?>
<!DOCTYPE svg PUBLIC "-//W3C//DTD SVG 20010904//EN"
 "http://www.w3.org/TR/2001/REC-SVG-20010904/DTD/svg10.dtd">
<svg version="1.0" xmlns="http://www.w3.org/2000/svg"
 width="155.000000pt" height="155.000000pt" viewBox="0 0 155.000000 155.000000"
 preserveAspectRatio="xMidYMid meet">
<metadata>
Created by potrace 1.14, written by Peter Selinger 2001-2017
</metadata>
<g transform="translate(0.000000,155.000000) scale(0.100000,-0.100000)"
fill="#000000" stroke="none">
<path d="M0 775 l0 -775 775 0 775 0 0 775 0 775 -775 0 -775 0 0 -775z m1285
485 c103 -32 159 -66 181 -108 18 -34 19 -62 19 -392 0 -417 2 -406 -99 -467
-54 -34 -68 -38 -121 -36 -33 1 -106 -5 -161 -13 -135 -19 -474 -18 -629 1
-66 8 -143 15 -171 15 -58 0 -144 38 -167 73 -8 12 -26 56 -41 96 -26 73 -27
78 -29 355 l-2 281 26 56 c32 67 75 103 161 132 60 21 82 22 513 25 439 4 452
3 520 -18z"/>
<path d="M276 1205 c-50 -18 -101 -68 -132 -130 -24 -50 -24 -54 -23 -305 l1
-255 33 -70 c18 -38 48 -83 65 -100 l31 -30 502 2 c276 1 521 5 545 8 55 8 87
43 110 120 16 52 18 96 16 343 l-2 283 -26 39 c-18 27 -45 48 -93 72 l-68 33
-460 1 c-358 2 -469 -1 -499 -11z m339 -330 c-7 -142 -7 -145 13 -145 30 0 36
-17 12 -30 -19 -10 -21 -17 -15 -64 5 -36 3 -56 -4 -61 -20 -12 -42 16 -39 51
3 51 -10 58 -78 43 -33 -6 -66 -12 -74 -12 -8 0 -36 -17 -61 -38 -46 -39 -69
-48 -69 -29 0 5 28 41 63 78 93 103 185 237 203 298 12 43 20 54 36 54 20 0
20 -4 13 -145z m519 69 c9 -8 16 -19 16 -23 0 -5 -47 -11 -104 -13 -57 -3
-110 -9 -116 -13 -8 -5 -11 -48 -8 -150 1 -79 0 -147 -4 -150 -4 -4 -14 -5
-23 -2 -12 5 -15 30 -15 152 l0 145 -27 0 c-37 0 -133 -26 -146 -39 -25 -25
-69 2 -51 31 19 30 240 71 416 77 31 1 52 -4 62 -15z"/>
<path d="M527 818 c-20 -29 -46 -65 -57 -80 l-22 -28 47 0 c76 0 85 10 85 90
0 39 -4 70 -9 70 -4 0 -24 -24 -44 -52z"/>
</g>
</svg>
